<svg width="37" height="39" viewBox="0 0 37 39" xmlns="http://www.w3.org/2000/svg"><g id="Demosite" stroke="none" stroke-width="1" fill="none" fill-rule="evenodd"><g id="Demosite_home_v1" transform="translate(-702 -2386)" fill="#FFF"><path d="M714.066 2408.256c4.84 0 8.777-3.94 8.777-8.784 0-4.841-3.938-8.78-8.777-8.78-4.836 0-8.771 3.939-8.771 8.78 0 4.843 3.935 8.784 8.77 8.784zm0-16.256c4.119 0 7.47 3.352 7.47 7.472 0 4.122-3.351 7.475-7.47 7.475-4.115 0-7.464-3.353-7.464-7.475 0-4.12 3.349-7.472 7.464-7.472zm9.072 20.788c-2.282-3.802-7.069-3.324-7.201-3.304h-3.89c-.163 0-4.026-.105-6.291 3.152-1.25 1.798-3.092 8.696-3.74 11.566a.653.653 0 101.275.288c.68-3.01 2.473-9.576 3.538-11.106 1.85-2.661 5.146-2.596 5.196-2.592l3.982-.005c.044-.003 4.18-.42 6.028 2.704a.94.94 0 00.05.073c1.136 1.436 3.031 7.878 3.73 10.928a.653.653 0 101.273-.292c-.548-2.396-2.494-9.51-3.95-11.412zm6.367-26.788c-3.63 0-6.99 1.747-8.557 4.45a.654.654 0 001.13.657c1.338-2.308 4.254-3.799 7.427-3.799 4.515 0 8.188 2.926 8.188 6.523 0 3.356-3.288 6.207-7.484 6.491a.649.649 0 00-.28.085l-1.714.977.08-.097a.654.654 0 00-.4-1.063 9.538 9.538 0 01-2.65-.829.654.654 0 00-.57 1.177c.61.296 1.254.535 1.924.712l-1.679 2.026a.655.655 0 00.504 1.071c.11 0 .221-.027.322-.085l4.703-2.68c4.807-.39 8.551-3.785 8.551-7.785 0-4.318-4.26-7.831-9.495-7.831z" id="Fill-90"/></g></g></svg>