<svg width="37" height="38" viewBox="0 0 37 38" xmlns="http://www.w3.org/2000/svg"><g id="Demosite" stroke="none" stroke-width="1" fill="none" fill-rule="evenodd"><g id="Demosite_home_v1" transform="translate(-410 -2387)" fill="#FFF"><g id="MIDDLE" transform="translate(-17 -303)"><g id="Howwework" transform="translate(37 2488)"><g id="Idea" transform="translate(291 178)"><g id="Idea-icon" transform="translate(75)"><path d="M59.32 39.836h-2.44c-.279 0-.617-.257-.718-.596l-1.436-3.576c-.129-.243-.07-.673.121-.869l1.721-1.769c.32-.325.495-.759.495-1.22 0-.462-.175-.895-.492-1.22l-1.984-2.044c-.632-.642-1.734-.644-2.373.004l-1.722 1.774c-.187.19-.512.309-.92.093l-3.48-1.466c-.262-.08-.509-.426-.509-.713v-2.507c0-.952-.756-1.727-1.685-1.727h-2.8c-.926 0-1.679.775-1.679 1.727v2.507c0 .28-.257.633-.582.735l-3.48 1.476c-.228.13-.663.065-.848-.123l-1.727-1.775c-.634-.647-1.74-.647-2.373.001l-1.984 2.037a1.733 1.733 0 00-.494 1.221c0 .461.175.895.492 1.218l1.726 1.773c.191.195.252.625.092.935l-1.427 3.572c-.079.268-.421.532-.692.532h-2.445c-.925 0-1.677.775-1.677 1.726v2.88c0 .95.752 1.724 1.677 1.724h2.445c.27 0 .613.263.714.594l1.435 3.574c.133.248.074.671-.122.871l-1.724 1.769c-.319.326-.494.76-.494 1.224 0 .464.177.897.492 1.218l1.988 2.045c.638.64 1.74.639 2.373-.008l1.725-1.774c.182-.187.507-.305.914-.089l3.477 1.465c.262.079.52.432.52.712v2.506c0 .953.752 1.727 1.678 1.727h2.8c.929 0 1.685-.774 1.685-1.727v-2.506c0-.287.247-.633.574-.735l3.483-1.474c.225-.129.668-.065.85.121l1.724 1.776c.632.649 1.743.65 2.376 0l1.978-2.036a1.73 1.73 0 00.495-1.22c0-.464-.175-.9-.493-1.223l-1.725-1.768c-.19-.196-.248-.63-.087-.94l1.427-3.573c.078-.271.416-.529.694-.529h2.441c.925 0 1.68-.775 1.68-1.725v-2.879c0-.95-.755-1.726-1.68-1.726zm.372 4.605a.384.384 0 01-.372.383h-2.44c-.852 0-1.708.655-1.926 1.426l-1.373 3.44c-.407.762-.261 1.843.338 2.465l1.728 1.771a.385.385 0 01.109.271c0 .06-.015.174-.11.271l-1.981 2.038c-.187.191-.34.19-.525 0l-1.726-1.776c-.364-.373-.895-.587-1.456-.587-.343 0-.671.082-.882.205l-3.353 1.42c-.811.247-1.447 1.124-1.447 1.999v2.506c0 .21-.173.385-.378.385h-2.8a.378.378 0 01-.372-.385v-2.506c0-.874-.64-1.752-1.393-1.976l-3.347-1.41a1.929 1.929 0 00-.947-.238c-.56 0-1.09.214-1.453.588l-1.724 1.77a.392.392 0 01-.532.006l-1.985-2.041a.381.381 0 01-.107-.269.38.38 0 01.11-.27l1.726-1.772c.6-.616.751-1.699.375-2.399l-1.382-3.443c-.244-.835-1.097-1.489-1.945-1.489h-2.445c-.2 0-.37-.176-.37-.383v-2.879c0-.207.17-.383.37-.383h2.445c.848 0 1.701-.655 1.923-1.429l1.371-3.44c.41-.764.26-1.848-.345-2.464l-1.726-1.772a.379.379 0 01-.107-.269c0-.102.037-.197.11-.27l1.985-2.036a.38.38 0 01.526-.001l1.727 1.772c.365.375.896.59 1.457.59.34 0 .667-.082.877-.206l3.35-1.42c.817-.248 1.456-1.126 1.456-2v-2.507a.38.38 0 01.372-.385h2.8c.205 0 .378.176.378.385v2.507c0 .875.636 1.754 1.383 1.976l3.35 1.412c.73.412 1.815.252 2.407-.353l1.72-1.772a.387.387 0 01.529-.004l1.982 2.043a.384.384 0 010 .54l-1.723 1.77c-.602.616-.753 1.7-.373 2.397l1.38 3.442c.24.838 1.097 1.494 1.948 1.494h2.441c.2 0 .372.176.372.383v2.88zM42.5 37.746c-2.821 0-5.116 2.357-5.116 5.254 0 2.898 2.295 5.254 5.116 5.254 2.82 0 5.114-2.356 5.114-5.254 0-2.897-2.295-5.254-5.114-5.254zm0 9.166c-2.1 0-3.81-1.754-3.81-3.912 0-2.157 1.71-3.912 3.81-3.912 2.098 0 3.807 1.755 3.807 3.912 0 2.158-1.71 3.912-3.807 3.912z" id="Fill-185"/></g></g></g></g></g></g></svg>