<svg width="51" height="28" viewBox="0 0 51 28" xmlns="http://www.w3.org/2000/svg"><g id="Demosite" stroke="none" stroke-width="1" fill="none" fill-rule="evenodd"><g id="Demosite_home_v1" transform="translate(-986 -2392)" fill="#FFF"><g id="MIDDLE" transform="translate(-17 -303)"><g id="Howwework" transform="translate(37 2488)"><g id="Design"><g id="Design-icon" transform="translate(947 178)"><path d="M61.997 40.706a7.82 7.82 0 00-3.279.724c-1.009-1.834-1.653-3.036-2.198-4.05a152.11 152.11 0 00-2.141-3.897c-.394-.692-.467-1.705-.174-2.41.161-.386.402-.622.714-.701a.694.694 0 00.513-.76.687.687 0 00-.678-.612h-5.037a.69.69 0 00-.683.696c0 .385.305.696.683.696h3.291a2.156 2.156 0 00-.063.138c-.46 1.11-.36 2.577.25 3.652l.01.015h-19.43l-.727-1.485h3.872a.69.69 0 00.683-.696.69.69 0 00-.683-.696h-8.321a.69.69 0 00-.684.696.69.69 0 00.684.696h2.92l1.077 2.197-.007.016c-.014.031-.032.06-.04.093l-2.738 6.216a7.819 7.819 0 00-2.81-.528c-4.412 0-8.001 3.654-8.001 8.147C19 53.345 22.589 57 27.001 57c4.171 0 7.603-3.265 7.97-7.415h3.08c.238 2.03 1.922 3.615 3.981 3.615 2.22 0 4.027-1.84 4.027-4.102 0-.728-.203-1.401-.531-1.995l10.42-7.887c.42.78.92 1.7 1.574 2.888a8.18 8.18 0 00-3.526 6.749c0 4.492 3.588 8.147 8.001 8.147C66.41 57 70 53.345 70 48.853c0-4.493-3.59-8.147-8.003-8.147zM27.001 55.608c-3.657 0-6.634-3.03-6.634-6.755s2.977-6.755 6.634-6.755a6.5 6.5 0 012.25.407l-2.686 6.1a.71.71 0 00.051.662.68.68 0 00.575.318h6.408c-.36 3.382-3.181 6.023-6.598 6.023zm1.245-7.415l2.236-5.08a6.769 6.769 0 013.124 5.08h-5.36zm9.861 0h-3.134a8.164 8.164 0 00-3.927-6.359l2.234-5.074 5.459 9.988a4.12 4.12 0 00-.632 1.445zm3.925 3.615c-1.469 0-2.664-1.216-2.664-2.71s1.195-2.708 2.664-2.708c1.467 0 2.66 1.214 2.66 2.708 0 1.494-1.193 2.71-2.66 2.71zm2.634-5.786c-.708-.629-1.623-1.024-2.634-1.024-.85 0-1.637.272-2.288.73l-5.54-10.14h19.781c.469.844.854 1.56 1.303 2.397l-10.622 8.037zm17.331 9.586c-3.658 0-6.634-3.03-6.634-6.755a6.788 6.788 0 012.832-5.528c.941 1.7 2.15 3.862 3.77 6.733a.681.681 0 00.594.348c.114 0 .232-.03.339-.092a.704.704 0 00.253-.95 896.166 896.166 0 01-3.762-6.72c.8-.35 1.682-.546 2.608-.546 3.658 0 6.635 3.03 6.635 6.755s-2.977 6.755-6.635 6.755z" id="Fill-54"/></g></g></g></g></g></g></svg>