<svg width="89" height="12" viewBox="0 0 89 12" xmlns="http://www.w3.org/2000/svg"><g id="Page-1" stroke="none" stroke-width="1" fill="none" fill-rule="evenodd"><g id="icons" transform="translate(-41 -35)" fill="#464646"><path d="M49.106 35.801v1.876h-2.87V46H43.87v-8.323H41v-1.876h8.106zM61.529 46h-2.38v-4.312h-4.144V46h-2.38V35.801h2.38v4.263h4.144v-4.263h2.38V46zm10.786-10.199v1.82h-4.186v2.38h3.206v1.75h-3.206v2.429h4.186V46h-6.566V35.801h6.566zm15.977 7.56a.457.457 0 01.329.14l.938.987c-.41.537-.925.941-1.543 1.215-.619.273-1.35.409-2.195.409-.775 0-1.469-.132-2.082-.395a4.507 4.507 0 01-1.561-1.093 4.809 4.809 0 01-.984-1.652 6.1 6.1 0 01-.343-2.075c0-.76.13-1.46.392-2.096a4.89 4.89 0 011.096-1.649 4.941 4.941 0 011.683-1.078c.653-.257 1.374-.385 2.163-.385.383 0 .743.034 1.082.102.338.067.654.16.948.28.294.119.565.26.812.427.247.165.467.348.658.549l-.798 1.071a1.016 1.016 0 01-.182.178.474.474 0 01-.294.081.525.525 0 01-.238-.056 2.63 2.63 0 01-.238-.136 41.986 41.986 0 00-.276-.175c-.1-.064-.22-.122-.357-.175a2.95 2.95 0 00-.483-.137 3.296 3.296 0 00-.648-.056c-.43 0-.821.076-1.176.227-.355.152-.659.37-.913.651a3.019 3.019 0 00-.595 1.026 4.023 4.023 0 00-.214 1.351c0 .523.071.987.214 1.393.142.406.336.748.58 1.026a2.485 2.485 0 001.908.85c.215 0 .41-.01.588-.031a2.283 2.283 0 00.927-.308c.138-.082.277-.184.417-.305a.828.828 0 01.182-.115.477.477 0 01.203-.046zm7.25-1.134V46h-2.366V35.801h3.318c.738 0 1.367.076 1.887.227.52.152.945.363 1.274.634.329.27.568.59.717.959.15.369.224.77.224 1.204 0 .331-.044.644-.133.938a2.84 2.84 0 01-.395.816 3.06 3.06 0 01-.644.668 3.42 3.42 0 01-.879.483c.16.08.307.177.445.294.138.117.258.259.36.427L101.52 46h-2.142c-.396 0-.68-.15-.854-.448l-1.694-2.961a.713.713 0 00-.262-.28c-.1-.056-.242-.084-.424-.084h-.602zm0-1.631h.952c.322 0 .597-.04.823-.122.226-.082.412-.195.556-.34.145-.145.25-.314.315-.508.066-.193.098-.402.098-.626 0-.448-.145-.798-.437-1.05-.292-.252-.743-.378-1.355-.378h-.952v3.024zm16.05-4.795v1.82h-4.186v2.38h3.206v1.75h-3.206v2.429h4.186V46h-6.566V35.801h6.566zm3.113 0h1.988c.205 0 .377.047.514.14a.641.641 0 01.27.371l1.4 5.32c.047.173.093.357.14.553.047.196.082.401.105.616.047-.22.098-.426.154-.62l.161-.549 1.652-5.32a.733.733 0 01.27-.353.801.801 0 01.5-.158h.7a.88.88 0 01.507.136.702.702 0 01.277.375l1.638 5.32c.051.163.105.337.161.522.056.184.105.381.147.591.037-.205.076-.401.115-.588.04-.187.081-.362.123-.525l1.4-5.32a.666.666 0 01.266-.357.829.829 0 01.504-.154h1.862L126.409 46h-2.142l-1.918-6.321a11.2 11.2 0 01-.203-.693 8.291 8.291 0 01-.203.693L119.997 46h-2.142l-3.15-10.199z" id="THE-CREW-Logo"/></g></g></svg>